<svg width="41" height="41" viewBox="0 0 41 41" fill="none" xmlns="http://www.w3.org/2000/svg">
<circle cx="20.5" cy="20.5" r="19.75" stroke="#2F76A9" stroke-width="1.5"/>
<circle cx="20.5" cy="20.5" r="17" stroke="#2F76A9"/>
<path d="M16.4834 27H15.0596V17.8418C15.0596 17.0801 15.083 16.3594 15.1299 15.6797C15.0068 15.8027 14.8691 15.9316 14.7168 16.0664C14.5645 16.2012 13.8672 16.7725 12.625 17.7803L11.8516 16.7783L15.2529 14.1504H16.4834V27ZM29.8252 27H21.3789V25.7432L24.7627 22.3418C25.7939 21.2988 26.4736 20.5547 26.8018 20.1094C27.1299 19.6641 27.376 19.2305 27.54 18.8086C27.7041 18.3867 27.7861 17.9326 27.7861 17.4463C27.7861 16.7607 27.5781 16.2188 27.1621 15.8203C26.7461 15.416 26.1689 15.2139 25.4307 15.2139C24.8975 15.2139 24.3906 15.3018 23.9102 15.4775C23.4355 15.6533 22.9053 15.9727 22.3193 16.4355L21.5459 15.4424C22.7295 14.458 24.0186 13.9658 25.4131 13.9658C26.6201 13.9658 27.5664 14.2764 28.252 14.8975C28.9375 15.5127 29.2803 16.3418 29.2803 17.3848C29.2803 18.1992 29.0518 19.0049 28.5947 19.8018C28.1377 20.5986 27.2822 21.6064 26.0283 22.8252L23.2158 25.5762V25.6465H29.8252V27Z" fill="#2F76A9"/>
</svg>
