<svg width="41" height="41" viewBox="0 0 41 41" fill="none" xmlns="http://www.w3.org/2000/svg">
<circle cx="20.5" cy="20.5" r="19.75" stroke="#2F76A9" stroke-width="1.5"/>
<circle cx="20.5" cy="20.5" r="17" stroke="#2F76A9"/>
<path d="M16.4834 27H15.0596V17.8418C15.0596 17.0801 15.083 16.3594 15.1299 15.6797C15.0068 15.8027 14.8691 15.9316 14.7168 16.0664C14.5645 16.2012 13.8672 16.7725 12.625 17.7803L11.8516 16.7783L15.2529 14.1504H16.4834V27ZM26.7842 27H25.3604V17.8418C25.3604 17.0801 25.3838 16.3594 25.4307 15.6797C25.3076 15.8027 25.1699 15.9316 25.0176 16.0664C24.8652 16.2012 24.168 16.7725 22.9258 17.7803L22.1523 16.7783L25.5537 14.1504H26.7842V27Z" fill="#2F76A9"/>
</svg>
