<svg width="41" height="41" viewBox="0 0 41 41" fill="none" xmlns="http://www.w3.org/2000/svg">
<circle cx="20.5" cy="20.5" r="19.75" stroke="#2F76A9" stroke-width="1.5"/>
<circle cx="20.5" cy="20.5" r="17" stroke="#2F76A9"/>
<path d="M16.4834 27H15.0596V17.8418C15.0596 17.0801 15.083 16.3594 15.1299 15.6797C15.0068 15.8027 14.8691 15.9316 14.7168 16.0664C14.5645 16.2012 13.8672 16.7725 12.625 17.7803L11.8516 16.7783L15.2529 14.1504H16.4834V27ZM29.8955 20.5576C29.8955 22.7783 29.5439 24.4365 28.8408 25.5322C28.1436 26.6279 27.0742 27.1758 25.6328 27.1758C24.25 27.1758 23.1982 26.6162 22.4775 25.4971C21.7568 24.3721 21.3965 22.7256 21.3965 20.5576C21.3965 18.3193 21.7451 16.6582 22.4424 15.5742C23.1396 14.4902 24.2031 13.9482 25.6328 13.9482C27.0273 13.9482 28.085 14.5137 28.8057 15.6445C29.5322 16.7754 29.8955 18.4131 29.8955 20.5576ZM22.873 20.5576C22.873 22.4268 23.0928 23.7891 23.5322 24.6445C23.9717 25.4941 24.6719 25.9189 25.6328 25.9189C26.6055 25.9189 27.3086 25.4883 27.7422 24.627C28.1816 23.7598 28.4014 22.4033 28.4014 20.5576C28.4014 18.7119 28.1816 17.3613 27.7422 16.5059C27.3086 15.6445 26.6055 15.2139 25.6328 15.2139C24.6719 15.2139 23.9717 15.6387 23.5322 16.4883C23.0928 17.332 22.873 18.6885 22.873 20.5576Z" fill="#2F76A9"/>
</svg>
