<svg width="41" height="41" viewBox="0 0 41 41" fill="none" xmlns="http://www.w3.org/2000/svg">
<circle cx="20.5" cy="20.5" r="19.75" stroke="#2F76A9" stroke-width="1.5"/>
<circle cx="20.5" cy="20.5" r="17" stroke="#2F76A9"/>
<path d="M13.583 27H12.1592V17.8418C12.1592 17.0801 12.1826 16.3594 12.2295 15.6797C12.1064 15.8027 11.9688 15.9316 11.8164 16.0664C11.6641 16.2012 10.9668 16.7725 9.72461 17.7803L8.95117 16.7783L12.3525 14.1504H13.583V27ZM18.3379 22.8428V21.5068H22.6533V22.8428H18.3379ZM28.5332 13.9658C29.7051 13.9658 30.6338 14.2383 31.3193 14.7832C32.0049 15.3281 32.3477 16.0811 32.3477 17.042C32.3477 17.6748 32.1514 18.252 31.7588 18.7734C31.3662 19.2949 30.7393 19.7695 29.8779 20.1973C30.9209 20.6953 31.6621 21.2197 32.1016 21.7705C32.541 22.3154 32.7607 22.9482 32.7607 23.6689C32.7607 24.7354 32.3887 25.5879 31.6445 26.2266C30.9004 26.8594 29.8809 27.1758 28.5859 27.1758C27.2148 27.1758 26.1602 26.877 25.4219 26.2793C24.6836 25.6758 24.3145 24.8232 24.3145 23.7217C24.3145 22.251 25.2109 21.1055 27.0039 20.2852C26.1953 19.8281 25.6152 19.3359 25.2637 18.8086C24.9121 18.2754 24.7363 17.6807 24.7363 17.0244C24.7363 16.0928 25.0791 15.3516 25.7646 14.8008C26.4561 14.2441 27.3789 13.9658 28.5332 13.9658ZM25.7559 23.7568C25.7559 24.46 25.999 25.0078 26.4854 25.4004C26.9775 25.793 27.666 25.9893 28.5508 25.9893C29.4238 25.9893 30.1035 25.7842 30.5898 25.374C31.0762 24.9639 31.3193 24.4014 31.3193 23.6865C31.3193 23.1182 31.0908 22.6143 30.6338 22.1748C30.1768 21.7295 29.3799 21.2988 28.2432 20.8828C27.3701 21.2578 26.7373 21.6738 26.3447 22.1309C25.9521 22.582 25.7559 23.124 25.7559 23.7568ZM28.5156 15.1523C27.7832 15.1523 27.209 15.3281 26.793 15.6797C26.377 16.0312 26.1689 16.5 26.1689 17.0859C26.1689 17.625 26.3418 18.0879 26.6875 18.4746C27.0332 18.8613 27.6719 19.248 28.6035 19.6348C29.4414 19.2832 30.0332 18.9053 30.3789 18.501C30.7305 18.0967 30.9062 17.625 30.9062 17.0859C30.9062 16.4941 30.6924 16.0254 30.2646 15.6797C29.8428 15.3281 29.2598 15.1523 28.5156 15.1523Z" fill="#2F76A9"/>
</svg>
