<svg width="41" height="41" viewBox="0 0 41 41" fill="none" xmlns="http://www.w3.org/2000/svg">
<circle cx="20.5" cy="20.5" r="19.75" stroke="#2F76A9" stroke-width="1.5"/>
<circle cx="20.5" cy="20.5" r="17" stroke="#2F76A9"/>
<path d="M24.6748 19.6348C24.6748 24.6621 22.7295 27.1758 18.8389 27.1758C18.1592 27.1758 17.6201 27.1172 17.2217 27V25.7432C17.6904 25.8955 18.2236 25.9717 18.8213 25.9717C20.2275 25.9717 21.2881 25.5381 22.0029 24.6709C22.7236 23.7979 23.1162 22.4619 23.1807 20.6631H23.0752C22.7529 21.1494 22.3252 21.5215 21.792 21.7793C21.2588 22.0312 20.6582 22.1572 19.9902 22.1572C18.8535 22.1572 17.9512 21.8174 17.2832 21.1377C16.6152 20.458 16.2812 19.5088 16.2812 18.29C16.2812 16.9541 16.6533 15.8994 17.3975 15.126C18.1475 14.3525 19.1318 13.9658 20.3506 13.9658C21.2236 13.9658 21.9854 14.1914 22.6357 14.6426C23.292 15.0879 23.7959 15.7412 24.1475 16.6025C24.499 17.458 24.6748 18.4688 24.6748 19.6348ZM20.3506 15.2139C19.5127 15.2139 18.8652 15.4834 18.4082 16.0225C17.9512 16.5615 17.7227 17.3115 17.7227 18.2725C17.7227 19.1162 17.9336 19.7812 18.3555 20.2676C18.7773 20.748 19.4189 20.9883 20.2803 20.9883C20.8135 20.9883 21.3027 20.8799 21.748 20.6631C22.1992 20.4463 22.5537 20.1504 22.8115 19.7754C23.0693 19.4004 23.1982 19.0078 23.1982 18.5977C23.1982 17.9824 23.0781 17.4141 22.8379 16.8926C22.5977 16.3711 22.2607 15.9609 21.8271 15.6621C21.3994 15.3633 20.9072 15.2139 20.3506 15.2139Z" fill="#2F76A9"/>
</svg>
