<svg width="56" height="14" viewBox="0 0 56 14" fill="none" xmlns="http://www.w3.org/2000/svg">
<path d="M0 13.6379V13.4368L0.475432 13.2557C0.709702 13.1619 0.86818 13.0412 0.950863 12.8937C1.04733 12.7328 1.09556 12.5182 1.09556 12.25V1.75C1.09556 1.4818 1.05422 1.27395 0.971534 1.12644C0.902631 0.965518 0.737264 0.838123 0.475432 0.744253L0 0.563218V0.362069H9.90138L10.0254 3.45977H9.8187L8.92985 1.56897C8.80582 1.32759 8.6749 1.13314 8.5371 0.985633C8.39929 0.838123 8.19258 0.764368 7.91697 0.764368H4.1962V6.57759H6.40799C6.6836 6.57759 6.89031 6.51054 7.02812 6.37644C7.17971 6.22893 7.31062 6.03448 7.42087 5.7931L7.83429 4.98851H8.041V8.6092H7.83429L7.42087 7.76437C7.29684 7.52299 7.16593 7.33525 7.02812 7.20115C6.89031 7.05364 6.6836 6.97988 6.40799 6.97988H4.1962V13.2356H8.37173C8.64734 13.2356 8.86094 13.1686 9.01253 13.0345C9.16412 12.887 9.28814 12.6858 9.38461 12.431L10.2321 10.5402H10.4388L10.3148 13.6379H0Z" fill="#2F76A9"/>
<path d="M11.7346 13.6379V13.4368L12.4168 13.2356C12.6648 13.1686 12.844 13.0412 12.9542 12.8534C13.0645 12.6523 13.1196 12.4176 13.1196 12.1494V2.47414C12.968 2.1523 12.844 1.91092 12.7475 1.75C12.6648 1.58908 12.5684 1.45498 12.4581 1.3477C12.3479 1.22701 12.1963 1.0795 12.0034 0.905173L11.652 0.563218V0.362069H15.3107L22.1735 9.47414V1.8908C22.1735 1.62261 22.1252 1.38123 22.0288 1.16667C21.9461 0.952107 21.7669 0.811303 21.4913 0.744253L20.8092 0.563218V0.362069H23.7651V0.563218L23.207 0.744253C22.959 0.824712 22.8074 0.965517 22.7522 1.16667C22.6971 1.36782 22.6696 1.60249 22.6696 1.87069V13.6983H21.512L13.6157 3.13793V12.1494C13.6157 12.4176 13.657 12.6456 13.7397 12.8333C13.8224 13.0211 13.9947 13.1552 14.2565 13.2356L14.8766 13.4368V13.6379H11.7346Z" fill="#2F76A9"/>
<path d="M31.6364 14C30.2308 14 28.9905 13.7184 27.9156 13.1552C26.8545 12.5785 26.0208 11.7672 25.4144 10.7213C24.8219 9.66188 24.5256 8.41475 24.5256 6.97988C24.5256 5.58525 24.8219 4.36494 25.4144 3.31897C26.007 2.27299 26.8614 1.46169 27.9776 0.885058C29.1076 0.295019 30.4719 0 32.0705 0C32.8009 0 33.4761 0.0804599 34.0962 0.24138C34.7301 0.402299 35.3296 0.636973 35.8946 0.945402L35.9773 3.76149H35.7706L34.613 1.66954C34.4339 1.33429 34.2685 1.09291 34.1169 0.945402C33.9653 0.797893 33.7724 0.683908 33.5381 0.603449C33.3176 0.536398 33.1109 0.489463 32.918 0.462644C32.7388 0.422414 32.4977 0.402298 32.1945 0.402298C31.3401 0.402298 30.5822 0.623563 29.9207 1.06609C29.273 1.50862 28.77 2.21264 28.4117 3.17816C28.0534 4.14368 27.8743 5.41092 27.8743 6.97988C27.8743 8.53544 28.0396 9.80268 28.3704 10.7816C28.7149 11.7605 29.1972 12.478 29.8173 12.9339C30.4375 13.3764 31.1541 13.5977 31.9671 13.5977C32.0912 13.5977 32.2083 13.591 32.3185 13.5776C32.4426 13.5508 32.5597 13.5239 32.6699 13.4971C32.9318 13.4569 33.104 13.3496 33.1867 13.1753C33.2694 13.001 33.3107 12.7931 33.3107 12.5517V8.56897C33.3107 8.04598 33.0351 7.72414 32.4839 7.60345L31.533 7.36207V7.16092H37.3622V7.36207L37.0729 7.44253C36.5492 7.60345 36.2874 7.9387 36.2874 8.44828V12.8132C35.5708 13.2021 34.8404 13.4971 34.0962 13.6983C33.3659 13.8994 32.5459 14 31.6364 14Z" fill="#2F76A9"/>
<path d="M45.4036 14C43.9979 14 42.7577 13.7184 41.6828 13.1552C40.6217 12.5785 39.788 11.7672 39.1816 10.7213C38.589 9.66188 38.2928 8.41475 38.2928 6.97988C38.2928 5.58525 38.589 4.36494 39.1816 3.31897C39.7742 2.27299 40.6286 1.46169 41.7448 0.885058C42.8748 0.295019 44.2391 0 45.8377 0C46.568 0 47.2433 0.0804599 47.8634 0.24138C48.4973 0.402299 49.0968 0.636973 49.6618 0.945402L49.7445 3.76149H49.5377L48.3802 1.66954C48.201 1.33429 48.0357 1.09291 47.8841 0.945402C47.7325 0.797893 47.5396 0.683908 47.3053 0.603449C47.0848 0.536398 46.8781 0.489463 46.6852 0.462644C46.506 0.422414 46.2649 0.402298 45.9617 0.402298C45.1073 0.402298 44.3493 0.623563 43.6879 1.06609C43.0402 1.50862 42.5372 2.21264 42.1789 3.17816C41.8206 4.14368 41.6414 5.41092 41.6414 6.97988C41.6414 8.53544 41.8068 9.80268 42.1376 10.7816C42.4821 11.7605 42.9644 12.478 43.5845 12.9339C44.2046 13.3764 44.9212 13.5977 45.7343 13.5977C45.8583 13.5977 45.9755 13.591 46.0857 13.5776C46.2097 13.5508 46.3269 13.5239 46.4371 13.4971C46.6989 13.4569 46.8712 13.3496 46.9539 13.1753C47.0366 13.001 47.0779 12.7931 47.0779 12.5517V8.56897C47.0779 8.04598 46.8023 7.72414 46.2511 7.60345L45.3002 7.36207V7.16092H51.1294V7.36207L50.84 7.44253C50.3164 7.60345 50.0545 7.9387 50.0545 8.44828V12.8132C49.3379 13.2021 48.6076 13.4971 47.8634 13.6983C47.133 13.8994 46.3131 14 45.4036 14Z" fill="#2F76A9"/>
<path d="M54.2223 13.9397C53.7262 13.9397 53.3059 13.772 52.9614 13.4368C52.6169 13.1015 52.4446 12.6992 52.4446 12.2299C52.4446 11.7605 52.6169 11.3515 52.9614 11.0029C53.3059 10.6542 53.7262 10.4799 54.2223 10.4799C54.7184 10.4799 55.1387 10.6542 55.4832 11.0029C55.8277 11.3515 56 11.7605 56 12.2299C56 12.6992 55.8277 13.1015 55.4832 13.4368C55.1387 13.772 54.7184 13.9397 54.2223 13.9397Z" fill="#2F76A9"/>
</svg>
