<svg width="51" height="32" viewBox="0 0 51 32" fill="none" xmlns="http://www.w3.org/2000/svg">
<path d="M8.87375 14.36C7.51375 14.36 6.31375 14.08 5.27375 13.52C4.24708 12.9467 3.44042 12.14 2.85375 11.1C2.28042 10.0467 1.99375 8.80667 1.99375 7.38C1.99375 5.99333 2.28042 4.78 2.85375 3.74C3.42708 2.7 4.25375 1.89333 5.33375 1.32C6.42708 0.733333 7.74708 0.439999 9.29375 0.439999C10.0004 0.439999 10.6538 0.52 11.2538 0.68C11.8671 0.839999 12.4471 1.07333 12.9938 1.38L13.0738 4.18H12.8738L11.7538 2.1C11.5804 1.76667 11.4204 1.52667 11.2738 1.38C11.1271 1.23333 10.9404 1.12 10.7138 1.04C10.5004 0.973333 10.3004 0.926666 10.1138 0.899999C9.94042 0.859999 9.70708 0.839999 9.41375 0.839999C8.58708 0.839999 7.85375 1.06 7.21375 1.5C6.58708 1.94 6.10042 2.64 5.75375 3.6C5.40708 4.56 5.23375 5.82 5.23375 7.38C5.23375 8.92667 5.39375 10.1867 5.71375 11.16C6.04708 12.1333 6.51375 12.8467 7.11375 13.3C7.71375 13.74 8.40708 13.96 9.19375 13.96C9.31375 13.96 9.42708 13.9533 9.53375 13.94C9.65375 13.9133 9.76708 13.8867 9.87375 13.86C10.1271 13.82 10.2938 13.7133 10.3738 13.54C10.4538 13.3667 10.4938 13.16 10.4938 12.92V8.96C10.4938 8.44 10.2271 8.12 9.69375 8L8.77375 7.76V7.56H14.4138V7.76L14.1338 7.84C13.6271 8 13.3738 8.33333 13.3738 8.84V13.18C12.6804 13.5667 11.9738 13.86 11.2538 14.06C10.5471 14.26 9.75375 14.36 8.87375 14.36ZM20.1788 14.3C19.1654 14.3 18.2854 14.0933 17.5388 13.68C16.7921 13.2533 16.2121 12.6533 15.7988 11.88C15.3988 11.1067 15.1988 10.2 15.1988 9.16C15.1988 8.12 15.4121 7.22 15.8388 6.46C16.2788 5.7 16.8721 5.11333 17.6188 4.7C18.3788 4.28667 19.2321 4.08 20.1788 4.08C21.1254 4.08 21.9721 4.28667 22.7188 4.7C23.4654 5.1 24.0521 5.68 24.4788 6.44C24.9188 7.2 25.1388 8.10667 25.1388 9.16C25.1388 10.2133 24.9321 11.1267 24.5188 11.9C24.1188 12.66 23.5454 13.2533 22.7988 13.68C22.0654 14.0933 21.1921 14.3 20.1788 14.3ZM20.1788 13.9C20.6454 13.9 21.0188 13.7667 21.2988 13.5C21.5788 13.2333 21.7788 12.76 21.8988 12.08C22.0321 11.4 22.0988 10.44 22.0988 9.2C22.0988 7.94667 22.0321 6.98 21.8988 6.3C21.7788 5.62 21.5788 5.14667 21.2988 4.88C21.0188 4.61333 20.6454 4.48 20.1788 4.48C19.7121 4.48 19.3321 4.61333 19.0388 4.88C18.7588 5.14667 18.5521 5.62 18.4188 6.3C18.2988 6.98 18.2388 7.94667 18.2388 9.2C18.2388 10.44 18.2988 11.4 18.4188 12.08C18.5521 12.76 18.7588 13.2333 19.0388 13.5C19.3321 13.7667 19.7121 13.9 20.1788 13.9ZM30.38 14.06L26.84 5.56C26.6533 5.10667 26.3333 4.80667 25.88 4.66L25.6 4.58V4.38H30.78V4.58L30.42 4.66C29.9 4.79333 29.74 5.14 29.94 5.7L32.04 11.28L34 5.74C34.1067 5.47333 34.1333 5.25333 34.08 5.08C34.0267 4.90667 33.8667 4.78 33.6 4.7L33.1 4.58V4.38H36V4.58L35.42 4.72C35.1667 4.78667 34.9667 4.88667 34.82 5.02C34.6867 5.15333 34.5733 5.35333 34.48 5.62L31.54 14.06H30.38ZM40.3836 14.3C39.5303 14.3 38.8636 14.0867 38.3836 13.66C37.9169 13.2333 37.6836 12.5533 37.6836 11.62V4.78H36.3036V4.58L36.7836 4.5C37.1969 4.40667 37.5503 4.27333 37.8436 4.1C38.1503 3.92667 38.4503 3.69333 38.7436 3.4L40.3836 1.58H40.5836L40.5236 4.38H42.7636V4.78H40.5036V11.98C40.5036 12.4467 40.6036 12.8 40.8036 13.04C41.0169 13.28 41.2836 13.4 41.6036 13.4C41.8836 13.4 42.1303 13.3333 42.3436 13.2C42.5569 13.0533 42.7703 12.86 42.9836 12.62L43.1836 12.82C42.9169 13.2733 42.5503 13.6333 42.0836 13.9C41.6169 14.1667 41.0503 14.3 40.3836 14.3ZM46.4102 14.3C45.9302 14.3 45.5235 14.1333 45.1902 13.8C44.8568 13.4667 44.6902 13.0667 44.6902 12.6C44.6902 12.1333 44.8568 11.7267 45.1902 11.38C45.5235 11.0333 45.9302 10.86 46.4102 10.86C46.8902 10.86 47.2968 11.0333 47.6302 11.38C47.9635 11.7267 48.1302 12.1333 48.1302 12.6C48.1302 13.0667 47.9635 13.4667 47.6302 13.8C47.2968 14.1333 46.8902 14.3 46.4102 14.3ZM0.910703 31V30.8L1.3707 30.62C1.59737 30.5267 1.7507 30.4067 1.8307 30.26C1.92404 30.1 1.9707 29.8867 1.9707 29.62V19.18C1.9707 18.9133 1.9307 18.7067 1.8507 18.56C1.78404 18.4 1.62404 18.2733 1.3707 18.18L0.910703 18V17.8H10.4907L10.6107 20.88H10.4107L9.5507 19C9.4307 18.76 9.30404 18.5667 9.1707 18.42C9.03737 18.2733 8.83737 18.2 8.5707 18.2H4.9707V23.98H7.1107C7.37737 23.98 7.57737 23.9133 7.7107 23.78C7.85737 23.6333 7.98404 23.44 8.0907 23.2L8.4907 22.4H8.6907V26H8.4907L8.0907 25.16C7.9707 24.92 7.84404 24.7333 7.7107 24.6C7.57737 24.4533 7.37737 24.38 7.1107 24.38H4.9707V30.6H9.0107C9.27737 30.6 9.48404 30.5333 9.6307 30.4C9.77737 30.2533 9.89737 30.0533 9.9907 29.8L10.8107 27.92H11.0107L10.8907 31H0.910703ZM11.8245 31V30.8L12.3445 30.68C12.6511 30.6133 12.8978 30.5133 13.0845 30.38C13.2845 30.2333 13.4711 30.0333 13.6445 29.78L15.8045 26.68L13.0845 22.36C12.9511 22.16 12.8311 22.0067 12.7245 21.9C12.6178 21.7933 12.4511 21.7133 12.2245 21.66L11.9445 21.58V21.38H17.0245V21.58L16.6845 21.66C16.2178 21.8067 16.1245 22.1 16.4045 22.54L18.0445 25.08L19.8245 22.62C19.9711 22.3933 20.0378 22.2067 20.0245 22.06C20.0245 21.9 19.8978 21.7867 19.6445 21.72L19.1445 21.58V21.38H22.0645V21.58L21.5845 21.7C21.2911 21.78 21.0645 21.8867 20.9045 22.02C20.7445 22.14 20.5711 22.3333 20.3845 22.6L18.2845 25.44L21.0245 29.7C21.3578 30.22 21.8045 30.5533 22.3645 30.7L22.6845 30.8V31H17.1645V30.8L17.5045 30.72C17.7311 30.6667 17.8711 30.56 17.9245 30.4C17.9911 30.2267 17.9578 30.0333 17.8245 29.82L16.0645 27.08L14.1645 29.84C14.0045 30.0533 13.9511 30.24 14.0045 30.4C14.0711 30.5467 14.2111 30.6467 14.4245 30.7L14.8245 30.8V31H11.8245ZM26.1149 31.3C25.3416 31.3 24.6883 31.08 24.1549 30.64C23.6349 30.2 23.3749 29.5667 23.3749 28.74C23.3749 28.1133 23.6949 27.54 24.3349 27.02C24.9749 26.4867 25.9816 26.0867 27.3549 25.82C27.5683 25.78 27.8083 25.74 28.0749 25.7C28.3416 25.6467 28.6216 25.5933 28.9149 25.54V23.96C28.9149 23.0533 28.8016 22.42 28.5749 22.06C28.3616 21.6867 28.0216 21.5 27.5549 21.5C27.2349 21.5 26.9816 21.6067 26.7949 21.82C26.6083 22.02 26.4883 22.3733 26.4349 22.88L26.3949 23.1C26.3683 23.6733 26.2283 24.0933 25.9749 24.36C25.7216 24.6267 25.4083 24.76 25.0349 24.76C24.6883 24.76 24.4016 24.6533 24.1749 24.44C23.9483 24.2267 23.8349 23.94 23.8349 23.58C23.8349 23.0333 24.0216 22.5733 24.3949 22.2C24.7816 21.8267 25.2883 21.5467 25.9149 21.36C26.5416 21.1733 27.2216 21.08 27.9549 21.08C29.1416 21.08 30.0549 21.3733 30.6949 21.96C31.3483 22.5333 31.6749 23.4733 31.6749 24.78V29.2C31.6749 29.8 31.9549 30.1 32.5149 30.1H32.9549L33.1349 30.26C32.8816 30.58 32.6016 30.8267 32.2949 31C32.0016 31.1733 31.5816 31.26 31.0349 31.26C30.4483 31.26 29.9816 31.1267 29.6349 30.86C29.3016 30.58 29.0816 30.2133 28.9749 29.76C28.5749 30.1867 28.1616 30.5533 27.7349 30.86C27.3216 31.1533 26.7816 31.3 26.1149 31.3ZM27.3349 30.08C27.6016 30.08 27.8483 30.02 28.0749 29.9C28.3149 29.7667 28.5949 29.5667 28.9149 29.3V25.94C28.7816 25.9667 28.6483 25.9933 28.5149 26.02C28.3816 26.0467 28.2283 26.0733 28.0549 26.1C27.4416 26.26 26.9483 26.5333 26.5749 26.92C26.2149 27.2933 26.0349 27.8 26.0349 28.44C26.0349 28.9867 26.1616 29.4 26.4149 29.68C26.6683 29.9467 26.9749 30.08 27.3349 30.08ZM33.5074 31V30.8L33.7874 30.72C34.0408 30.6533 34.2141 30.54 34.3074 30.38C34.4141 30.22 34.4741 30.0067 34.4874 29.74V23.48C34.4874 23.1867 34.4408 22.9733 34.3474 22.84C34.2541 22.6933 34.0741 22.5933 33.8074 22.54L33.5074 22.46V22.26L36.9274 21.1L37.1274 21.3L37.2874 22.66C37.7274 22.22 38.2274 21.8467 38.7874 21.54C39.3608 21.2333 39.9541 21.08 40.5674 21.08C41.2074 21.08 41.7208 21.2133 42.1074 21.48C42.4941 21.7333 42.7874 22.1333 42.9874 22.68C43.5074 22.1867 44.0674 21.8 44.6674 21.52C45.2808 21.2267 45.8741 21.08 46.4474 21.08C47.3941 21.08 48.0874 21.3067 48.5274 21.76C48.9808 22.2133 49.2074 22.9267 49.2074 23.9V29.76C49.2074 30.28 49.4474 30.6067 49.9274 30.74L50.1474 30.8V31H45.5274V30.8L45.7274 30.74C45.9808 30.66 46.1541 30.54 46.2474 30.38C46.3541 30.22 46.4074 30.0067 46.4074 29.74V23.62C46.4074 23.06 46.3074 22.68 46.1074 22.48C45.9074 22.2667 45.5874 22.16 45.1474 22.16C44.8008 22.16 44.4608 22.24 44.1274 22.4C43.8074 22.5467 43.4674 22.7733 43.1074 23.08C43.1741 23.2933 43.2141 23.5267 43.2274 23.78C43.2541 24.0333 43.2674 24.3 43.2674 24.58V29.76C43.2808 30.28 43.5208 30.6067 43.9874 30.74L44.1674 30.8V31H39.5274V30.8L39.8074 30.72C40.0608 30.64 40.2341 30.5267 40.3274 30.38C40.4341 30.22 40.4874 30.0067 40.4874 29.74V23.64C40.4874 23.1067 40.3874 22.7267 40.1874 22.5C40.0008 22.2733 39.6741 22.16 39.2074 22.16C38.9008 22.16 38.5941 22.24 38.2874 22.4C37.9808 22.5467 37.6608 22.7667 37.3274 23.06V29.76C37.3274 30.28 37.5608 30.6067 38.0274 30.74L38.2074 30.8V31H33.5074Z" fill="#2F76A9"/>
</svg>
