<svg width="50" height="18" viewBox="0 0 50 18" fill="none" xmlns="http://www.w3.org/2000/svg">
<path d="M0 17.5345V17.2759L0.523753 17.069C0.872922 16.9483 1.09988 16.7845 1.20463 16.5776C1.32684 16.3707 1.38795 16.0948 1.38795 15.75V2.25C1.38795 1.90517 1.33557 1.62931 1.23082 1.42241C1.12607 1.21552 0.89038 1.05172 0.523753 0.931035L0 0.724138V0.465517H6.73023V0.724138L6.20647 0.931035C5.85731 1.05172 5.62162 1.21552 5.49941 1.42241C5.39466 1.62931 5.34228 1.90517 5.34228 2.25V15.75C5.34228 16.0948 5.39466 16.3707 5.49941 16.5776C5.62162 16.7672 5.85731 16.931 6.20647 17.069L6.73023 17.2759V17.5345H0Z" fill="#2F76A9"/>
<path d="M16.4506 18C14.7571 18 13.2207 17.6638 11.8415 16.9914C10.4798 16.3017 9.39734 15.2845 8.59426 13.9397C7.79117 12.5948 7.38962 10.9483 7.38962 9C7.38962 7.51724 7.63404 6.21552 8.12288 5.09483C8.61171 3.97414 9.27513 3.03448 10.1131 2.27586C10.9686 1.51724 11.9463 0.948276 13.0462 0.568966C14.1635 0.189655 15.3419 0 16.5815 0C17.5766 0 18.4932 0.112069 19.3312 0.336207C20.1692 0.560345 20.9548 0.87069 21.6881 1.26724L21.7928 4.44828H21.531L20.2216 2.37931C20.047 2.05172 19.8549 1.75862 19.6454 1.5C19.4359 1.22414 19.1741 1.01724 18.8598 0.87931C18.5979 0.758621 18.3361 0.672414 18.0742 0.620689C17.8298 0.551724 17.5155 0.517241 17.1314 0.517241C16.1188 0.517241 15.1935 0.784482 14.3555 1.31897C13.535 1.85345 12.8716 2.74138 12.3653 3.98276C11.8764 5.2069 11.632 6.88793 11.632 9.02586C11.632 11.1466 11.8677 12.8276 12.3391 14.069C12.8105 15.2931 13.4477 16.1724 14.2508 16.7069C15.0713 17.2241 15.9879 17.4828 17.0005 17.4828C17.5592 17.4828 18.0044 17.4483 18.3361 17.3793C18.6678 17.2931 18.9995 17.1724 19.3312 17.0172C19.6629 16.8793 19.9161 16.681 20.0906 16.4224C20.2652 16.1466 20.4223 15.8534 20.562 15.5431L21.7143 13.0086H21.9761L21.8976 16.7069C21.1643 17.0862 20.3438 17.3966 19.4359 17.6379C18.5281 17.8793 17.533 18 16.4506 18Z" fill="#2F76A9"/>
<path d="M28.8514 18C27.8912 18 26.9135 17.8793 25.9184 17.6379C24.9233 17.4138 24.094 17.1121 23.4306 16.7328L23.5615 13.2155H23.8234L24.6352 14.8966C24.8796 15.3793 25.1415 15.8103 25.4208 16.1897C25.7002 16.5517 26.0843 16.8362 26.5731 17.0431C26.9223 17.2155 27.254 17.3362 27.5682 17.4052C27.8999 17.4569 28.2666 17.4828 28.6681 17.4828C29.7331 17.4828 30.5711 17.1983 31.1821 16.6293C31.8106 16.0603 32.1249 15.3276 32.1249 14.431C32.1249 13.5862 31.9154 12.931 31.4964 12.4655C31.0774 11.9828 30.4052 11.5172 29.4799 11.069L28.4062 10.6034C26.9048 9.94828 25.7264 9.19828 24.8709 8.35345C24.0329 7.49138 23.6139 6.35345 23.6139 4.93965C23.6139 3.92241 23.8758 3.0431 24.3995 2.30172C24.9407 1.56034 25.6827 0.991379 26.6255 0.594828C27.5857 0.198276 28.703 0 29.9775 0C30.9028 0 31.7757 0.12069 32.5963 0.362069C33.4343 0.603448 34.1588 0.931034 34.7698 1.34483L34.6127 4.44828H34.3508L33.2771 2.50862C32.9803 1.90517 32.6836 1.48276 32.3868 1.24138C32.09 0.982758 31.7495 0.801724 31.3654 0.698276C31.1385 0.62931 30.929 0.586207 30.7369 0.568966C30.5449 0.534483 30.3005 0.517241 30.0037 0.517241C29.1133 0.517241 28.3626 0.775862 27.7515 1.2931C27.1405 1.7931 26.835 2.47414 26.835 3.33621C26.835 4.21552 27.0707 4.92241 27.542 5.4569C28.0134 5.97414 28.703 6.43966 29.6109 6.85345L30.8155 7.37069C32.4915 8.09483 33.6961 8.87069 34.4294 9.69828C35.1626 10.5086 35.5293 11.5603 35.5293 12.8534C35.5293 14.3707 34.9444 15.6121 33.7747 16.5776C32.6224 17.5259 30.9814 18 28.8514 18Z" fill="#2F76A9"/>
<path d="M36.7752 17.5345V17.2759L37.3776 17.0431C37.6743 16.9224 37.8751 16.7672 37.9799 16.5776C38.1021 16.3707 38.1632 16.0948 38.1632 15.75V2.25C38.1632 1.90517 38.1108 1.63793 38.0061 1.44828C37.9188 1.24138 37.7093 1.07759 37.3776 0.956896L36.7752 0.724138V0.465517H49.3191L49.4762 4.44828H49.2144L48.0883 2.01724C47.9312 1.7069 47.7653 1.4569 47.5907 1.26724C47.4162 1.07759 47.1543 0.982758 46.8051 0.982758H42.0913V8.4569H44.8934C45.2426 8.4569 45.5045 8.37069 45.679 8.19828C45.8711 8.00862 46.0369 7.75862 46.1766 7.44828L46.7004 6.41379H46.9622V11.069H46.7004L46.1766 9.98276C46.0195 9.67241 45.8536 9.43103 45.679 9.25862C45.5045 9.06897 45.2426 8.97414 44.8934 8.97414H42.0913V17.0172H47.3812C47.7304 17.0172 48.001 16.931 48.1931 16.7586C48.3851 16.569 48.5422 16.3103 48.6644 15.9828L49.7381 13.5517H50L49.8429 17.5345H36.7752Z" fill="#2F76A9"/>
</svg>
