<svg width="48" height="27" viewBox="0 0 48 27" fill="none" xmlns="http://www.w3.org/2000/svg">
<path d="M0.309688 27V26.6L1.10969 26.28C1.64302 26.0933 1.98969 25.84 2.14969 25.52C2.33635 25.2 2.42969 24.7733 2.42969 24.24V3.36C2.42969 2.82667 2.34969 2.4 2.18969 2.08C2.02969 1.76 1.66969 1.50667 1.10969 1.32L0.309688 0.999999V0.599999H10.5897V0.999999L9.78969 1.32C9.25635 1.50667 8.89635 1.76 8.70969 2.08C8.54969 2.4 8.46969 2.82667 8.46969 3.36V24.24C8.46969 24.7733 8.54969 25.2 8.70969 25.52C8.89635 25.8133 9.25635 26.0667 9.78969 26.28L10.5897 26.6V27H0.309688ZM12.3409 27V26.6L13.1409 26.28C13.6743 26.0933 14.0209 25.84 14.1809 25.52C14.3676 25.2 14.4609 24.7733 14.4609 24.24V3.36C14.4609 2.82667 14.3809 2.4 14.2209 2.08C14.0609 1.76 13.7009 1.50667 13.1409 1.32L12.3409 0.999999V0.599999H22.6209V0.999999L21.8209 1.32C21.2876 1.50667 20.9276 1.76 20.7409 2.08C20.5809 2.4 20.5009 2.82667 20.5009 3.36V24.24C20.5009 24.7733 20.5809 25.2 20.7409 25.52C20.9276 25.8133 21.2876 26.0667 21.8209 26.28L22.6209 26.6V27H12.3409ZM29.7322 27V26.6L31.3722 26.2C32.4655 25.96 33.0122 25.2933 33.0122 24.2V1.4H29.6122C28.6255 1.4 27.9189 1.66667 27.4922 2.2C27.0655 2.70667 26.6122 3.41333 26.1322 4.32L24.6922 7.12H24.2922L24.4922 0.599999H47.5722L47.7322 7.12H47.3322L45.8922 4.32C45.4389 3.41333 44.9989 2.70667 44.5722 2.2C44.1455 1.66667 43.4389 1.4 42.4522 1.4H39.0522V24.2C39.0522 25.2933 39.5989 25.96 40.6922 26.2L42.3322 26.6V27H29.7322Z" fill="#2F76A9"/>
</svg>
