<svg width="57" height="16" viewBox="0 0 57 16" fill="none" xmlns="http://www.w3.org/2000/svg">
<path d="M0.0979411 15.9276V15.6863L0.905955 15.4449C1.19978 15.3645 1.41198 15.2117 1.54257 14.9864C1.67316 14.7451 1.73845 14.4635 1.73845 14.1418V2.53394C1.5589 2.14781 1.41198 1.85822 1.29772 1.66516C1.19978 1.4721 1.08551 1.31121 0.954926 1.1825C0.824338 1.03771 0.644779 0.860734 0.41625 0.651584L0 0.241327V0H4.33389L12.463 10.9321V1.83409C12.463 1.51232 12.4059 1.22272 12.2916 0.96531C12.1937 0.707893 11.9815 0.538964 11.655 0.458522L10.847 0.241327V0H14.3484V0.241327L13.6873 0.458522C13.3934 0.555052 13.2139 0.723982 13.1486 0.96531C13.0833 1.20664 13.0507 1.48818 13.0507 1.80995V16H11.6795L2.3261 3.33032V14.1418C2.3261 14.4635 2.37507 14.7371 2.47301 14.9623C2.57095 15.1875 2.775 15.3484 3.08514 15.4449L3.8197 15.6863V15.9276H0.0979411Z" fill="#2F76A9"/>
<path d="M15.5372 15.9276V15.6863L16.1004 15.4691C16.3779 15.3565 16.5656 15.2117 16.6636 15.0347C16.7778 14.8416 16.835 14.5842 16.835 14.2624V1.66516C16.835 1.34339 16.786 1.09402 16.6881 0.917043C16.6064 0.723982 16.4106 0.571142 16.1004 0.458522L15.5372 0.241327V0H27.2657L27.4126 3.71644H27.1678L26.1149 1.44796C25.968 1.15837 25.8129 0.925088 25.6497 0.748115C25.4864 0.571141 25.2416 0.482654 24.9151 0.482654H20.5078V7.45701H23.1277C23.4542 7.45701 23.699 7.37657 23.8622 7.21569C24.0418 7.03871 24.1969 6.80543 24.3275 6.51584L24.8172 5.55053H25.062V9.89442H24.8172L24.3275 8.88084C24.1805 8.59125 24.0255 8.36601 23.8622 8.20513C23.699 8.02815 23.4542 7.93967 23.1277 7.93967H20.5078V15.4449H25.4538C25.7803 15.4449 26.0333 15.3645 26.2128 15.2036C26.3924 15.0266 26.5393 14.7853 26.6536 14.4796L27.6575 12.2112H27.9023L27.7554 15.9276H15.5372Z" fill="#2F76A9"/>
<path d="M29.1189 15.9276V15.6863L29.6821 15.4691C29.9596 15.3565 30.1473 15.2117 30.2452 15.0347C30.3595 14.8416 30.4166 14.5842 30.4166 14.2624V1.66516C30.4166 1.34339 30.3677 1.09402 30.2697 0.917043C30.1881 0.723982 29.9922 0.571142 29.6821 0.458522L29.1189 0.241327V0H40.8474L40.9943 3.71644H40.7494L39.6966 1.44796C39.5496 1.15837 39.3946 0.925088 39.2313 0.748115C39.0681 0.571141 38.8233 0.482654 38.4968 0.482654H34.0894V7.45701H36.7094C37.0358 7.45701 37.2807 7.37657 37.4439 7.21569C37.6235 7.03871 37.7785 6.80543 37.9091 6.51584L38.3988 5.55053H38.6437V9.89442H38.3988L37.9091 8.88084C37.7622 8.59125 37.6072 8.36601 37.4439 8.20513C37.2807 8.02815 37.0358 7.93967 36.7094 7.93967H34.0894V15.4449H39.0355C39.3619 15.4449 39.6149 15.3645 39.7945 15.2036C39.9741 15.0266 40.121 14.7853 40.2352 14.4796L41.2391 12.2112H41.484L41.3371 15.9276H29.1189Z" fill="#2F76A9"/>
<path d="M45.9816 15.9276V15.6863L46.9855 15.4449C47.6548 15.3002 47.9894 14.8979 47.9894 14.2383V0.482654H45.9082C45.3042 0.482654 44.8716 0.643539 44.6105 0.96531C44.3493 1.27099 44.0718 1.69734 43.778 2.24434L42.8965 3.93364H42.6516L42.7741 0H56.9021L57 3.93364H56.7551L55.8737 2.24434C55.5962 1.69734 55.3268 1.27099 55.0657 0.96531C54.8045 0.643539 54.3719 0.482654 53.7679 0.482654H51.6867V14.2383C51.6867 14.8979 52.0213 15.3002 52.6906 15.4449L53.6945 15.6863V15.9276H45.9816Z" fill="#2F76A9"/>
</svg>
